English (original version)
Spanish (Castilian)

The gruesome discovery of a severed human ear he found in a field leads a young man on a dark and dangerous journey into a dark and sinister underworld that exists in his hometown.

Format                                   : Matroska
File size                                : 4.04 GiB
Duration                                 : 2 h 0 min
Overall bit rate                         : 4801 kb/s

Format                                   : AVC
Format profile                           : High@L4.0
Bit rate                                 : 4000 kb/s
Width                                    : 1852 pixels
Height                                   : 816 pixels
Display aspect ratio                     : 2.25:1
Frame rate                               : 23.976 FPS
Bit depth                                : 8 bits
Scan type                                : Progressive
Bits/(Pixel*Frame)                       : 0.110
Stream size                              : 3.32 GiB (82%)
Writing library                          : x264 core 120

Format                                   : AC-3
Duration                                 : 2 h 0 min
Bit rate mode                            : Constant
Bit rate                                 : 384 kb/s
Channel(s)                               : 6 channels
Sampling rate                            : 48.0 kHz
Bit depth                                : 16 bits
Stream size                              : 331 MiB (8%)
Language                                 : Spanish

Format                                   : AC-3
Duration                                 : 2 h 0 min
Bit rate mode                            : Constant
Bit rate                                 : 384 kb/s
Channel(s)                               : 6 channels
Sampling rate                            : 48.0 kHz
Bit depth                                : 16 bits
Compression mode                         : Lossy
Stream size                              : 331 MiB (8%)
Language                                 : English

Format                                   : ASS
Language                                 : English

Enjoy and seed!